<svg xmlns="http://www.w3.org/2000/svg" viewBox="0 0 48 48" width="100" height="100" fill="black">
  <g transform="scale(1.2) translate(-4,-4)">
    <path d="M10.5 8C6.928 8 4 10.928 4 14.5V33.5C4 37.072 6.928 40 10.5 40H37.5C41.072 40 44 37.072 44 33.5V14.5C44 10.928 41.072 8 37.5 8H10.5zM10.5 11H37.5C38.093 11 38.64 11.158 39.127 11.412L24 19.59 8.873 11.412C9.36 11.158 9.907 11 10.5 11zM10 18.844L22.572 25.639C23.018 25.88 23.509 26 24 26C24.492 26 24.982 25.88 25.428 25.639L38 18.844V36.951C37.836 36.974 37.671 37 37.5 37H10.5C10.329 37 10.164 36.974 10 36.951V18.844z"/>
  </g>
</svg>
