<svg class="linkedinSvg" viewBox="0 0 24 24" xmlns="http://www.w3.org/2000/svg" aria-hidden="true" width="100" preserveAspectRatio="xMidYMid meet">
  <path d="M 20.447 20.452 H 16 v -5.569 c 0 -1.328 -0.027 -3.037 -1.851 -3.037 c -1.853 0 -2.136 1.445 -2.136 2.939 v 5.667 
  H 9.075 V 9 h 3.112 v 1.561 h 0.045 c 0.434 -0.823 1.494 -1.688 3.073 -1.688 c 3.287 0 3.894 2.164 3.894 4.978 v 6.601 z 
  M 5.337 7.433 a 1.814 1.814 0 1 1 0 -3.629 a 1.814 1.814 0 0 1 0 3.629 z M 6.873 20.452 H 3.801 V 9 h 3.072 v 11.452 z M 22.225 0 
  H 1.771 C 0.792 0 0 0.774 0 1.729 v 20.542 C 0 23.227 0.792 24 1.771 24 h 20.451 C 23.2 24 24 23.227 24 22.271 V 1.729 
  C 24 0.774 23.2 0 22.222 0 h 0.003 z" />
</svg>
